<svg xmlns="http://www.w3.org/2000/svg" width="33" height="19" viewBox="0 0 33 19">
    <path fill="#BBB" fill-rule="nonzero" d="M11.5 6a1.5 1.5 0 1 0 0 3 1.5 1.5 0 0 0 0-3zm0 4a1.5 1.5 0 1 0 0 3 1.5 1.5 0 0 0 0-3zm-4 4.5a1 1 0 1 0 0 2 1 1 0 0 0 0-2zm0-8.5a1.5 1.5 0 1 0 0 3 1.5 1.5 0 0 0 0-3zm4 12a.5.5 0 1 0 0 1 .5.5 0 0 0 0-1zm0-3.5a1 1 0 1 0 0 2 1 1 0 0 0 0-2zm7-3.5a.5.5 0 1 0 0 1 .5.5 0 0 0 0-1zm-3-8.5a1 1 0 1 0 0 2 1 1 0 0 0 0-2zm0 4a1 1 0 1 0 0 2 1 1 0 0 0 0-2zm0 8a1 1 0 1 0 0 2 1 1 0 0 0 0-2zm0-4a1 1 0 1 0 0 2 1 1 0 0 0 0-2zm-8-.5a1.5 1.5 0 1 0 0 3 1.5 1.5 0 0 0 0-3zm0-5.5a1 1 0 1 0 0-2 1 1 0 0 0 0 2zm0-3.5a.5.5 0 1 0 0-1 .5.5 0 0 0 0 1zm0 17a.5.5 0 1 0 0 1 .5.5 0 0 0 0-1zm-7-7a.5.5 0 1 0 0 1 .5.5 0 0 0 0-1zm11-10a.5.5 0 1 0 0-1 .5.5 0 0 0 0 1zm0 3.5a1 1 0 1 0 0-2 1 1 0 0 0 0 2zm7 3.5a.5.5 0 1 0 0-1 .5.5 0 0 0 0 1zm-15-5.5a1 1 0 1 0 0 2 1 1 0 0 0 0-2zM.5 7a.5.5 0 1 0 0 1 .5.5 0 0 0 0-1zm3-.5a1 1 0 1 0 0 2 1 1 0 0 0 0-2zm0 8a1 1 0 1 0 0 2 1 1 0 0 0 0-2zm0-4a1 1 0 1 1 0 2 1 1 0 0 1 0-2zM23 8h10l-5 4-5-4z"/>
</svg>
