<?xml version="1.0" encoding="iso-8859-1"?>
<!-- Generator: Adobe Illustrator 19.0.0, SVG Export Plug-In . SVG Version: 6.00 Build 0)  -->
<svg version="1.1" id="Capa_1" xmlns="http://www.w3.org/2000/svg" xmlns:xlink="http://www.w3.org/1999/xlink" x="0px" y="0px"
	width="24px" height="24px"
    viewBox="0 0 512 512" style="enable-background:new 0 0 512 512;" xml:space="preserve">
	<g fill="#136cb0">
		<path d="M423.385,0H88.615c-8.156,0-14.769,6.613-14.769,14.769v482.462c0,8.157,6.613,14.769,14.769,14.769h334.769
			c8.156,0,14.769-6.613,14.769-14.769V14.769C438.154,6.613,431.541,0,423.385,0z M123.077,482.462h-19.692v-14.769h19.692V482.462
			z M123.077,438.154h-19.692V73.846h19.692V438.154z M123.077,44.308h-19.692V29.538h19.692V44.308z M359.385,482.462H152.615
			v-14.769h206.769V482.462z M359.385,438.154H152.615V73.846h206.769V438.154z M359.385,44.308H152.615V29.538h206.769V44.308z
			 M408.615,482.462h-19.692v-14.769h19.692V482.462z M408.615,438.154h-19.692V73.846h19.692V438.154z M408.615,44.308h-19.692
			V29.538h19.692V44.308z"/>
	</g>
</svg>
