<svg xmlns="http://www.w3.org/2000/svg" width="16" height="16" viewBox="0 0 16 16">
    <path fill="#F11D22" fill-rule="nonzero" d="M7.783 10.8a2.8 2.8 0 1 1 0-5.6 2.8 2.8 0 0 1 0 5.6zm5.944-2.024c.032-.256.056-.512.056-.776a6.84 6.84 0 0 0-.056-.8l1.688-1.304a.404.404 0 0 0 .096-.512l-1.6-2.768c-.096-.176-.312-.248-.488-.176l-1.992.8a5.799 5.799 0 0 0-1.352-.784L9.783.336a.404.404 0 0 0-.4-.336h-3.2c-.2 0-.368.144-.4.336l-.296 2.12c-.504.2-.936.472-1.352.784l-1.992-.8a.393.393 0 0 0-.488.176l-1.6 2.768a.394.394 0 0 0 .096.512L1.84 7.2a6.84 6.84 0 0 0-.056.8c0 .264.024.52.056.776L.151 10.104a.394.394 0 0 0-.096.512l1.6 2.768c.096.176.312.24.488.176l1.992-.808c.416.32.848.592 1.352.792l.296 2.12c.032.192.2.336.4.336h3.2c.2 0 .368-.144.4-.336l.296-2.12a5.825 5.825 0 0 0 1.352-.792l1.992.808c.176.064.392 0 .488-.176l1.6-2.768a.404.404 0 0 0-.096-.512l-1.688-1.328z"/>
</svg>
