<?xml version="1.0" encoding="iso-8859-1"?>
<!-- Generator: Adobe Illustrator 19.0.0, SVG Export Plug-In . SVG Version: 6.00 Build 0)  -->
<svg version="1.1" id="Capa_1" xmlns="http://www.w3.org/2000/svg" xmlns:xlink="http://www.w3.org/1999/xlink" x="0px" y="0px"
	 viewBox="0 0 480 480" style="enable-background:new 0 0 480 480;" xml:space="preserve">
<g fill="#BBB">
		<path d="M480,72V8c0.003-4.416-3.575-7.997-7.991-8c-0.003,0-0.006,0-0.009,0h-64v16h44.688L262.024,206.664
			c-4.254-2.836-9.016-4.824-14.024-5.855V27.313l34.344,34.344l11.312-11.313l-48-48c-3.122-3.124-8.186-3.125-11.309-0.003
			c-0.001,0.001-0.002,0.002-0.003,0.003l-48,48l11.313,11.312L232,27.313v173.496c-5.008,1.032-9.769,3.02-14.023,5.856L27.313,16
			H72V0H8C3.584-0.003,0.003,3.575,0,7.991C0,7.994,0,7.997,0,8v64h16V27.313l190.664,190.664
			c-2.836,4.254-4.824,9.016-5.855,14.023H27.313l34.344-34.344l-11.313-11.312l-48,48c-3.124,3.122-3.125,8.186-0.003,11.309
			c0.001,0.001,0.002,0.002,0.003,0.003l48,48l11.312-11.312L27.313,248h173.496c1.032,5.008,3.02,9.769,5.856,14.023L16,452.688
			V408H0v64c-0.003,4.416,3.575,7.997,7.991,8c0.003,0,0.006,0,0.009,0h64v-16H27.313l190.664-190.664
			c4.254,2.836,9.016,4.824,14.023,5.855v173.496l-34.344-34.344l-11.312,11.313l48,48c3.122,3.124,8.186,3.125,11.31,0.003
			c0.001-0.001,0.002-0.002,0.003-0.003l48-48l-11.313-11.312L248,452.688V279.192c5.008-1.032,9.769-3.02,14.023-5.856L452.688,464
			H408v16h64c4.416,0.003,7.997-3.575,8-7.991c0-0.003,0-0.006,0-0.009v-64h-16v44.688L273.336,262.023
			c2.836-4.254,4.824-9.016,5.855-14.023h173.496l-34.344,34.344l11.313,11.312l48-48c3.124-3.122,3.125-8.186,0.003-11.309
			c-0.001-0.001-0.002-0.002-0.003-0.003l-48-48l-11.312,11.313L452.688,232H279.192c-1.032-5.008-3.02-9.769-5.856-14.023
			L464,27.313V72H480z M240,264c-13.255,0-24-10.745-24-24s10.745-24,24-24s24,10.745,24,24
			C263.986,253.249,253.249,263.986,240,264z"/>
</g>
</svg>
