<svg viewBox="0 0 512 512" xmlns="http://www.w3.org/2000/svg"><path fill="#bbb" d="m402.019531 220.167969-.378906-110.394531-109.902344.191406.050781 29.933594 59.179688-.101563-140.316406 140.847656h-210.652344v231.355469h231.867188v-210.234375l140.015624-140.542969.203126 59.050782zm-200.085937 261.894531h-171.996094v-171.480469h171.996094zm0 0"/><path d="m69.59375 141.839844h29.933594v41.890625h-29.933594zm0 0"/><path d="m69.59375 70.660156h29.933594v41.886719h-29.933594zm0 0"/><path d="m69.59375 0h29.933594v41.886719h-29.933594zm0 0"/><path d="m69.59375 212.363281h29.933594v41.890625h-29.933594zm0 0"/><path d="m482.007812 141.839844h29.933594v41.890625h-29.933594zm0 0"/><path d="m482.007812 70.660156h29.933594v41.886719h-29.933594zm0 0"/><path d="m482.007812 0h29.933594v41.886719h-29.933594zm0 0"/><path d="m482.007812 212.363281h29.933594v41.890625h-29.933594zm0 0"/><path d="m482.007812 282.886719h29.933594v41.890625h-29.933594zm0 0"/><path d="m482.007812 353.410156h29.933594v41.890625h-29.933594zm0 0"/><path d="m269.175781 0h41.886719v29.9375h-41.886719zm0 0"/><path d="m197.992188 0h41.890624v29.9375h-41.890624zm0 0"/><path d="m127.335938 0h41.886718v29.9375h-41.886718zm0 0"/><path d="m339.699219 0h41.886719v29.9375h-41.886719zm0 0"/><path d="m410.222656 0h41.886719v29.9375h-41.886719zm0 0"/><path d="m259.445312 414.871094h41.886719v29.9375h-41.886719zm0 0"/><path d="m329.96875 414.871094h41.886719v29.9375h-41.886719zm0 0"/><path d="m400.492188 414.871094h41.890624v29.9375h-41.890624zm0 0"/><path d="m472.402344 414.871094h39.539062v29.9375h-39.539062zm0 0"/></svg>
