<?xml version="1.0" standalone="no"?>
<!DOCTYPE svg PUBLIC "-//W3C//DTD SVG 20010904//EN"
 "http://www.w3.org/TR/2001/REC-SVG-20010904/DTD/svg10.dtd">
<svg version="1.0" xmlns="http://www.w3.org/2000/svg"
 width="95.000000pt" height="95.000000pt" viewBox="0 0 95.000000 95.000000"
 preserveAspectRatio="xMidYMid meet">
<metadata>
Created by potrace 1.11, written by Peter Selinger 2001-2013
</metadata>
<g transform="translate(0.000000,95.000000) scale(0.100000,-0.100000)"
fill="#000000" stroke="none">
<path d="M60 825 l0 -65 415 0 415 0 0 65 0 65 -415 0 -415 0 0 -65z"/>
<path d="M60 475 l0 -225 415 0 415 0 0 225 0 225 -415 0 -415 0 0 -225z"/>
<path d="M60 125 l0 -65 415 0 415 0 0 65 0 65 -415 0 -415 0 0 -65z"/>
</g>
</svg>
