<?xml version="1.0" encoding="utf-8"?>
<!-- Generator: Adobe Illustrator 21.0.2, SVG Export Plug-In . SVG Version: 6.00 Build 0)  -->
<svg version="1.1" id="Layer_1" xmlns="http://www.w3.org/2000/svg" xmlns:xlink="http://www.w3.org/1999/xlink" x="0px" y="0px"
	 viewBox="0 0 300 300" style="enable-background:new 0 0 300 300;" xml:space="preserve">
<style type="text/css">
	.st0{clip-path:url(#SVGID_2_);}
	.st1{fill:#F2F2F2;}
	.st2{clip-path:url(#SVGID_2_);fill:#D9E021;}
</style>
<g>
	<defs>
		<ellipse id="SVGID_1_" cx="148.5" cy="148.2" rx="141.5" ry="142.2"/>
	</defs>
	<clipPath id="SVGID_2_">
		<use xlink:href="#SVGID_1_"  style="overflow:visible;"/>
	</clipPath>
	<g class="st0">
		<g>
			<rect x="-4.5" y="3.1" class="st1" width="319.5" height="291.1"/>
		</g>
	</g>
	<circle class="st2" cx="225" cy="187" r="18"/>
	<ellipse class="st2" cx="224.5" cy="89" rx="15.5" ry="74"/>
	<ellipse transform="matrix(0.844 -0.5363 0.5363 0.844 -34.2523 106.2333)" class="st2" cx="165.5" cy="112" rx="15.5" ry="74"/>
	<ellipse transform="matrix(0.3148 -0.9492 0.9492 0.3148 -71.6758 238.7106)" class="st2" cx="129.5" cy="169" rx="15.5" ry="74"/>
	<ellipse transform="matrix(0.9272 -0.3745 0.3745 0.9272 -77.8577 69.347)" class="st2" cx="139.5" cy="235" rx="74" ry="15.5"/>
	
		<ellipse transform="matrix(0.3986 -0.9171 0.9171 0.3986 -135.0095 354.1186)" class="st2" cx="202.5" cy="280" rx="74" ry="15.5"/>
	<ellipse transform="matrix(0.866 -0.5 0.5 0.866 -23.8387 169.0327)" class="st2" cx="303.5" cy="129" rx="74" ry="15.5"/>
	<ellipse transform="matrix(0.6296 -0.7769 0.7769 0.6296 -73.3061 326.2332)" class="st2" cx="305.5" cy="240" rx="15.5" ry="74"/>
</g>
</svg>
