<?xml version="1.0" encoding="utf-8"?>
<!-- Generator: Adobe Illustrator 21.0.2, SVG Export Plug-In . SVG Version: 6.00 Build 0)  -->
<svg version="1.1" xmlns="http://www.w3.org/2000/svg" xmlns:xlink="http://www.w3.org/1999/xlink" x="0px" y="0px"
	 viewBox="0 0 300 300" style="enable-background:new 0 0 300 300;" xml:space="preserve">
<style type="text/css">
	.st0{display:none;}
	.st1{display:inline;}
	.st2{fill:url(#SVGID_1_);}
	.st3{fill:url(#triangle36_1_);}
	.st4{fill:url(#triangle36_2_);}
	.st5{fill:url(#triangle36_3_);}
	.st6{fill:url(#triangle36_4_);}
	.st7{fill:url(#triangle36_5_);}
	.st8{fill:url(#triangle36_6_);}
	.st9{fill:url(#triangle36_7_);}
	.st10{fill:url(#triangle36_8_);}
	.st11{fill:url(#triangle36_9_);}
	.st12{fill:url(#SVGID_2_);}
	.st13{fill:url(#SVGID_3_);}
	.st14{fill:url(#SVGID_4_);}
	.st15{fill:url(#SVGID_5_);}
	.st16{fill:url(#SVGID_6_);}
	.st17{fill:url(#triangle36_10_);}
	.st18{fill:url(#triangle36_11_);}
	.st19{fill:url(#triangle36_12_);}
	.st20{fill:url(#triangle36_13_);}
	.st21{fill:url(#triangle36_14_);}
	.st22{fill:url(#triangle36_15_);}
	.st23{fill:url(#SVGID_7_);}
	.st24{fill:url(#SVGID_8_);}
	.st25{fill:url(#SVGID_9_);}
	.st26{fill:url(#SVGID_10_);}
	.st27{fill:url(#SVGID_11_);}
	.st28{fill:url(#SVGID_12_);}
	.st29{fill:url(#SVGID_13_);}
	.st30{fill:url(#SVGID_14_);}
	.st31{fill:url(#SVGID_15_);}
	.st32{fill:url(#triangle36_16_);}
	.st33{fill:url(#SVGID_16_);}
	.st34{fill:url(#triangle36_17_);}
	.st35{fill:url(#SVGID_17_);}
	.st36{fill:url(#SVGID_18_);}
	.st37{fill:url(#SVGID_19_);}
	.st38{fill:url(#SVGID_20_);}
	.st39{fill:url(#SVGID_21_);}
	.st40{fill:url(#SVGID_22_);}
	.st41{fill:url(#SVGID_23_);}
	.st42{fill:url(#triangle36_18_);}
	.st43{fill:url(#triangle36_19_);}
	.st44{fill:url(#SVGID_24_);}
	.st45{fill:url(#triangle36_20_);}
	.st46{fill:url(#SVGID_25_);}
	.st47{fill:url(#SVGID_26_);}
	.st48{fill:url(#SVGID_27_);}
	.st49{fill:url(#SVGID_28_);}
	.st50{fill:url(#triangle36_21_);}
	.st51{fill:url(#triangle36_22_);}
	.st52{fill:url(#SVGID_29_);}
	.st53{fill:url(#triangle36_23_);}
	.st54{fill:url(#SVGID_30_);}
	.st55{fill:url(#SVGID_31_);}
	.st56{fill:url(#SVGID_32_);}
	.st57{fill:url(#SVGID_33_);}
	.st58{fill:url(#triangle36_24_);}
	.st59{fill:url(#triangle36_25_);}
	.st60{fill:url(#triangle36_26_);}
	.st61{fill:url(#triangle36_27_);}
	.st62{fill:url(#triangle36_28_);}
	.st63{fill:url(#triangle36_29_);}
	.st64{fill:url(#triangle36_30_);}
	.st65{fill:url(#triangle36_31_);}
	.st66{fill:url(#triangle36_32_);}
	.st67{fill:url(#SVGID_34_);}
	.st68{fill:url(#SVGID_35_);}
	.st69{fill:url(#SVGID_36_);}
	.st70{fill:url(#SVGID_37_);}
	.st71{fill:url(#SVGID_38_);}
	.st72{fill:url(#triangle36_33_);}
	.st73{fill:url(#triangle36_34_);}
	.st74{fill:url(#triangle36_35_);}
	.st75{fill:url(#triangle36_36_);}
	.st76{fill:url(#triangle36_37_);}
	.st77{fill:url(#triangle36_38_);}
	.st78{fill:url(#SVGID_39_);}
	.st79{fill:url(#SVGID_40_);}
	.st80{fill:url(#SVGID_41_);}
	.st81{fill:url(#SVGID_42_);}
	.st82{fill:url(#SVGID_43_);}
	.st83{fill:url(#SVGID_44_);}
	.st84{fill:url(#SVGID_45_);}
	.st85{fill:url(#SVGID_46_);}
	.st86{fill:url(#SVGID_47_);}
	.st87{fill:url(#triangle36_39_);}
	.st88{fill:url(#SVGID_48_);}
	.st89{fill:url(#triangle36_40_);}
	.st90{fill:url(#SVGID_49_);}
	.st91{fill:url(#SVGID_50_);}
	.st92{fill:url(#SVGID_51_);}
	.st93{fill:url(#SVGID_52_);}
	.st94{fill:url(#SVGID_53_);}
	.st95{fill:url(#SVGID_54_);}
	.st96{fill:url(#SVGID_55_);}
	.st97{fill:url(#triangle36_41_);}
	.st98{fill:url(#triangle36_42_);}
	.st99{fill:url(#SVGID_56_);}
	.st100{fill:url(#triangle36_43_);}
	.st101{fill:url(#SVGID_57_);}
	.st102{fill:url(#SVGID_58_);}
	.st103{fill:url(#SVGID_59_);}
	.st104{fill:url(#SVGID_60_);}
	.st105{fill:url(#triangle36_44_);}
	.st106{fill:url(#triangle36_45_);}
	.st107{fill:url(#SVGID_61_);}
	.st108{fill:url(#triangle36_46_);}
	.st109{fill:url(#SVGID_62_);}
	.st110{fill:url(#SVGID_63_);}
	.st111{fill:url(#SVGID_64_);}
	.st112{fill:#F2F2F2;}
	.st113{fill:#D9E021;}
</style>
<g id="Layer_1" class="st0">
	<g class="st1">
		
			<linearGradient id="SVGID_1_" gradientUnits="userSpaceOnUse" x1="-156.014" y1="542.9535" x2="-153.629" y2="540.5685" gradientTransform="matrix(25 0 0 -61 3887 33257)">
			<stop  offset="0" style="stop-color:#F87A63"/>
			<stop  offset="1" style="stop-color:#E87B6B"/>
		</linearGradient>
		<path class="st2" d="M-3.8,182.5c0,20.7,0.1,41.5-0.3,62.2L22.8,310c1.7,0,3.4,0,5,0l2-153.1L-3.8,182.5z"/>
		
			<linearGradient id="triangle36_1_" gradientUnits="userSpaceOnUse" x1="-155.6998" y1="533.4893" x2="-153.3803" y2="531.1699" gradientTransform="matrix(26 0 0 -18 4067 9718)">
			<stop  offset="0" style="stop-color:#FBA068"/>
			<stop  offset="1" style="stop-color:#FCAD6D"/>
		</linearGradient>
		<polygon id="triangle36_430_" class="st3" points="29.8,156.9 40.5,108.2 85.3,127.1 		"/>
		
			<linearGradient id="triangle36_2_" gradientUnits="userSpaceOnUse" x1="-152.5157" y1="525.6367" x2="-150.11" y2="523.231" gradientTransform="matrix(24 0 0 -11 3813 5889)">
			<stop  offset="0" style="stop-color:#EECC92"/>
			<stop  offset="1" style="stop-color:#E8D09A"/>
		</linearGradient>
		<polygon id="triangle36_429_" class="st4" points="149.3,110.9 174.9,108.2 200.5,138 		"/>
		
			<linearGradient id="triangle36_3_" gradientUnits="userSpaceOnUse" x1="-155.3682" y1="538.711" x2="-152.8348" y2="536.1776" gradientTransform="matrix(21 0 0 -25 3297 13529)">
			<stop  offset="0" style="stop-color:#FDAD6A"/>
			<stop  offset="1" style="stop-color:#FDB472"/>
		</linearGradient>
		<polygon id="triangle36_407_" class="st5" points="40.5,108.2 85.3,127.1 66.1,59.5 		"/>
		
			<linearGradient id="triangle36_4_" gradientUnits="userSpaceOnUse" x1="-154.793" y1="538.6194" x2="-152.2107" y2="536.037" gradientTransform="matrix(33 0 0 -25 5169 13529)">
			<stop  offset="0" style="stop-color:#FDB974"/>
			<stop  offset="1" style="stop-color:#F8BF7E"/>
		</linearGradient>
		<polygon id="triangle36_406_" class="st6" points="66.1,59.5 85.3,127.1 136.5,75.8 		"/>
		
			<linearGradient id="triangle36_5_" gradientUnits="userSpaceOnUse" x1="-152.7475" y1="529.905" x2="-150.3397" y2="527.4971" gradientTransform="matrix(18 0 0 -13 2877 6971)">
			<stop  offset="0" style="stop-color:#F2CB8E"/>
			<stop  offset="1" style="stop-color:#F1CD8F"/>
		</linearGradient>
		<polygon id="triangle36_405_" class="st7" points="149.3,110.9 174.9,108.2 136.5,75.8 		"/>
		
			<linearGradient id="triangle36_6_" gradientUnits="userSpaceOnUse" x1="-153.8976" y1="538.2357" x2="-151.5973" y2="535.9354" gradientTransform="matrix(24 0 0 -25 3783 13535)">
			<stop  offset="0" style="stop-color:#F7BA7D"/>
			<stop  offset="1" style="stop-color:#F5C283"/>
		</linearGradient>
		<polygon id="triangle36_404_" class="st8" points="85.3,127.1 136.5,75.8 115.2,143.4 		"/>
		
			<linearGradient id="triangle36_7_" gradientUnits="userSpaceOnUse" x1="-153.0604" y1="538.1306" x2="-150.5949" y2="535.6651" gradientTransform="matrix(16 0 0 -25 2557 13535)">
			<stop  offset="0" style="stop-color:#F5C987"/>
			<stop  offset="1" style="stop-color:#F3C487"/>
		</linearGradient>
		<polygon id="triangle36_403_" class="st9" points="136.5,75.8 149.3,110.9 115.2,143.4 		"/>
		
			<linearGradient id="triangle36_8_" gradientUnits="userSpaceOnUse" x1="-156.1095" y1="535.4926" x2="-153.6282" y2="533.0112" gradientTransform="matrix(14 0 0 -20 2198 10810)">
			<stop  offset="0" style="stop-color:#FC9C64"/>
			<stop  offset="1" style="stop-color:#FFA060"/>
		</linearGradient>
		<polygon id="triangle36_402_" class="st10" points="29.8,156.9 40.5,108.2 10.6,102.8 		"/>
		
			<linearGradient id="triangle36_9_" gradientUnits="userSpaceOnUse" x1="-155.846" y1="535.6238" x2="-153.1986" y2="532.9764" gradientTransform="matrix(26 0 0 -18 4058 9700)">
			<stop  offset="0" style="stop-color:#FFA864"/>
			<stop  offset="1" style="stop-color:#FFA963"/>
		</linearGradient>
		<polygon id="triangle36_401_" class="st11" points="40.5,108.2 66.1,59.5 10.6,102.8 		"/>
		
			<linearGradient id="SVGID_2_" gradientUnits="userSpaceOnUse" x1="-157.0014" y1="541.294" x2="-154.5821" y2="538.8747" gradientTransform="matrix(34 0 0 -33 5264 17888)">
			<stop  offset="0" style="stop-color:#FF8848"/>
			<stop  offset="1" style="stop-color:#FF8D45"/>
		</linearGradient>
		<path class="st12" d="M-2.5,102.8h13.1L-2.3,86.9C-2.3,92.2-2.4,97.5-2.5,102.8z"/>
		
			<linearGradient id="SVGID_3_" gradientUnits="userSpaceOnUse" x1="-156.4294" y1="544.5452" x2="-154.0815" y2="542.1973" gradientTransform="matrix(34 0 0 -55 5264 29900)">
			<stop  offset="0" style="stop-color:#FF9945"/>
			<stop  offset="1" style="stop-color:#FF9044"/>
		</linearGradient>
		<path class="st13" d="M-11.7-6.1c0.4,2.7,0.7,5.4,1.1,8.1C-6.9,28.5-2.4,55.2-2.3,82c0,1.6,0,3.2,0,4.8l12.9,15.9L6-4.3
			C0.1-4.8-5.8-5.4-11.7-6.1z"/>
		
			<linearGradient id="SVGID_4_" gradientUnits="userSpaceOnUse" x1="-156.1927" y1="526.502" x2="-153.6307" y2="523.9401" gradientTransform="matrix(24 0 0 -11 3724 5887)">
			<stop  offset="0" style="stop-color:#FF894D"/>
			<stop  offset="1" style="stop-color:#FF8F55"/>
		</linearGradient>
		<path class="st14" d="M-2.7,114.4l13.3-11.6H-2.5C-2.5,106.7-2.6,110.5-2.7,114.4z"/>
		
			<linearGradient id="SVGID_5_" gradientUnits="userSpaceOnUse" x1="-156.4644" y1="536.4756" x2="-154.1748" y2="534.186" gradientTransform="matrix(25 0 0 -24 3887 13009)">
			<stop  offset="0" style="stop-color:#FC805E"/>
			<stop  offset="1" style="stop-color:#FF8D5D"/>
		</linearGradient>
		<path class="st15" d="M29.8,156.9l-33.1-15.1c-0.2,10.5-0.5,21.1-0.5,31.6c0,3,0,6,0,9.1L29.8,156.9z"/>
		
			<linearGradient id="SVGID_6_" gradientUnits="userSpaceOnUse" x1="-156.3406" y1="535.3922" x2="-153.9456" y2="532.9971" gradientTransform="matrix(25 0 0 -20 3887 10810)">
			<stop  offset="0" style="stop-color:#FF975A"/>
			<stop  offset="1" style="stop-color:#FF915C"/>
		</linearGradient>
		<path class="st16" d="M-3.3,141.8l33.1,15.1l-19.2-54.1l-13.3,11.6C-2.8,123.5-3.1,132.6-3.3,141.8z"/>
		
			<linearGradient id="triangle36_10_" gradientUnits="userSpaceOnUse" x1="-151.6093" y1="536.0409" x2="-149.1888" y2="533.6204" gradientTransform="matrix(22 0 0 -20 3515 10803)">
			<stop  offset="0" style="stop-color:#EAD39C"/>
			<stop  offset="1" style="stop-color:#E5D6A3"/>
		</linearGradient>
		<polygon id="triangle36_290_" class="st17" points="174.9,108.2 200.5,138 221.9,83.9 		"/>
		
			<linearGradient id="triangle36_11_" gradientUnits="userSpaceOnUse" x1="-147.0746" y1="536.0991" x2="-144.37" y2="533.3945" gradientTransform="matrix(10 0 0 -20 1667 10803)">
			<stop  offset="0" style="stop-color:#E2D4A3"/>
			<stop  offset="1" style="stop-color:#E1D9A8"/>
		</linearGradient>
		<polygon id="triangle36_289_" class="st18" points="200.5,138 221.9,127.1 221.9,83.9 		"/>
		
			<linearGradient id="triangle36_12_" gradientUnits="userSpaceOnUse" x1="-146.8559" y1="532.7148" x2="-144.5317" y2="530.3907" gradientTransform="matrix(11 0 0 -16 1832 8615)">
			<stop  offset="0" style="stop-color:#DFD8AB"/>
			<stop  offset="1" style="stop-color:#E1DCAE"/>
		</linearGradient>
		<polygon id="triangle36_288_" class="st19" points="221.9,127.1 245.3,105.5 221.9,83.9 		"/>
		
			<linearGradient id="triangle36_13_" gradientUnits="userSpaceOnUse" x1="-151.6423" y1="526.281" x2="-149.2514" y2="523.89" gradientTransform="matrix(25 0 0 -12 3992 6443)">
			<stop  offset="0" style="stop-color:#DFD1A6"/>
			<stop  offset="1" style="stop-color:#D8D4B0"/>
		</linearGradient>
		<polygon id="triangle36_287_" class="st20" points="200.5,138 221.9,127.1 253.9,159.6 		"/>
		
			<linearGradient id="triangle36_14_" gradientUnits="userSpaceOnUse" x1="-148.483" y1="535.3241" x2="-146.135" y2="532.9761" gradientTransform="matrix(15 0 0 -20 2452 10811)">
			<stop  offset="0" style="stop-color:#DBD7AF"/>
			<stop  offset="1" style="stop-color:#D7D8B5"/>
		</linearGradient>
		<polygon id="triangle36_286_" class="st21" points="221.9,127.1 245.3,105.5 253.9,159.6 		"/>
		
			<linearGradient id="triangle36_15_" gradientUnits="userSpaceOnUse" x1="-149.4481" y1="535.1767" x2="-146.8427" y2="532.5713" gradientTransform="matrix(19 0 0 -20 3083 10811)">
			<stop  offset="0" style="stop-color:#D7DDB8"/>
			<stop  offset="1" style="stop-color:#CEDBBE"/>
		</linearGradient>
		<polygon id="triangle36_285_" class="st22" points="245.3,105.5 285.9,110.9 253.9,159.6 		"/>
		
			<linearGradient id="SVGID_7_" gradientUnits="userSpaceOnUse" x1="-151.144" y1="533.4929" x2="-148.7367" y2="531.0856" gradientTransform="matrix(26 0 0 -18 4172 9719)">
			<stop  offset="0" style="stop-color:#CCD8BF"/>
			<stop  offset="1" style="stop-color:#C6DFC8"/>
		</linearGradient>
		<path class="st23" d="M302.7,132.4c-0.1-2.7-0.2-5.4-0.2-8.1l-16.5-13.3l-32,48.7l48.8-26.2C302.7,133.1,302.7,132.7,302.7,132.4z
			"/>
		
			<linearGradient id="SVGID_8_" gradientUnits="userSpaceOnUse" x1="-152.6328" y1="523.991" x2="-150.0871" y2="521.4454" gradientTransform="matrix(38 0 0 -11 6032 5897)">
			<stop  offset="0" style="stop-color:#C5D7C2"/>
			<stop  offset="1" style="stop-color:#B6DBD0"/>
		</linearGradient>
		<path class="st24" d="M302.7,133.4l-48.8,26.2l49.9-3.3C303.3,148.7,302.9,141.1,302.7,133.4z"/>
		
			<linearGradient id="SVGID_9_" gradientUnits="userSpaceOnUse" x1="-150.5282" y1="534.1568" x2="-148.1209" y2="531.7495" gradientTransform="matrix(26 0 0 -18 4187 9708)">
			<stop  offset="0" style="stop-color:#C7E2C9"/>
			<stop  offset="1" style="stop-color:#C1E3CE"/>
		</linearGradient>
		<path class="st25" d="M302.1,102.2l-16.2,8.7l16.5,13.3C302.3,116.9,302.1,109.6,302.1,102.2z"/>
		
			<linearGradient id="SVGID_10_" gradientUnits="userSpaceOnUse" x1="-153.0377" y1="540.8361" x2="-150.6076" y2="538.4059" gradientTransform="matrix(46 0 0 -31 7257 16797)">
			<stop  offset="0" style="stop-color:#E4E1B2"/>
			<stop  offset="1" style="stop-color:#DFE5BD"/>
		</linearGradient>
		<path class="st26" d="M302.3,32.9l-80.4,51l23.5,21.6l56.9-63.9C302.3,38.7,302.3,35.8,302.3,32.9z"/>
		
			<linearGradient id="SVGID_11_" gradientUnits="userSpaceOnUse" x1="-153.4817" y1="543.8403" x2="-151.0844" y2="541.4431" gradientTransform="matrix(46 0 0 -50 7257 27163)">
			<stop  offset="0" style="stop-color:#EAE3B0"/>
			<stop  offset="1" style="stop-color:#ECEBB6"/>
		</linearGradient>
		<path class="st27" d="M302.6,1l-8.9-10.5c-7.7-0.2-15.3-0.3-23-0.3c-7.9,0-15.8,0.2-23.8,0.4l-25,93.2l80.4-51
			C302.4,22.3,302.5,11.7,302.6,1z"/>
		
			<linearGradient id="SVGID_12_" gradientUnits="userSpaceOnUse" x1="-152.5921" y1="541.3935" x2="-149.7268" y2="538.5283" gradientTransform="matrix(35 0 0 -33 5563 17891)">
			<stop  offset="0" style="stop-color:#D9E1BB"/>
			<stop  offset="1" style="stop-color:#D7E6C4"/>
		</linearGradient>
		<path class="st28" d="M302.2,41.7l-56.9,63.9l40.5,5.4L302,68.7C302.1,59.7,302.1,50.7,302.2,41.7z"/>
		
			<linearGradient id="SVGID_13_" gradientUnits="userSpaceOnUse" x1="-151.3419" y1="544.8134" x2="-149.0154" y2="542.4868" gradientTransform="matrix(29 0 0 -53 4639 28778)">
			<stop  offset="0" style="stop-color:#F3EBA8"/>
			<stop  offset="1" style="stop-color:#E2E5A7"/>
		</linearGradient>
		<path class="st29" d="M302.6-9.2c-3-0.1-6-0.2-8.9-0.3L302.6,1C302.6-2.4,302.6-5.8,302.6-9.2z"/>
		
			<linearGradient id="SVGID_14_" gradientUnits="userSpaceOnUse" x1="-151.0317" y1="540.7286" x2="-148.5358" y2="538.2327" gradientTransform="matrix(26 0 0 -33 4187 17891)">
			<stop  offset="0" style="stop-color:#CDE4C8"/>
			<stop  offset="1" style="stop-color:#D1E9CB"/>
		</linearGradient>
		<path class="st30" d="M302,68.7l-16.1,42.2l16.2-8.7C302,91.1,302,79.9,302,68.7z"/>
		
			<linearGradient id="SVGID_15_" gradientUnits="userSpaceOnUse" x1="-153.7295" y1="544.5797" x2="-151.2637" y2="542.1139" gradientTransform="matrix(26 0 0 -59 4117 32074)">
			<stop  offset="0" style="stop-color:#F9D18C"/>
			<stop  offset="1" style="stop-color:#FBD88F"/>
		</linearGradient>
		<path class="st31" d="M150.5-4.6l-14,80.4L192,27.1l-8.4-33.6C172.6-5.9,161.5-5.3,150.5-4.6z"/>
		
			<linearGradient id="triangle36_16_" gradientUnits="userSpaceOnUse" x1="-152.8593" y1="540.8502" x2="-150.5164" y2="538.5072" gradientTransform="matrix(26 0 0 -30 4117 16252)">
			<stop  offset="0" style="stop-color:#F4CF8D"/>
			<stop  offset="1" style="stop-color:#F1D597"/>
		</linearGradient>
		<polygon id="triangle36_252_" class="st32" points="136.5,75.8 174.9,108.2 192,27.1 		"/>
		
			<linearGradient id="SVGID_16_" gradientUnits="userSpaceOnUse" x1="-154.1893" y1="543.5409" x2="-151.6149" y2="540.9664" gradientTransform="matrix(44 0 0 -41 6920 22228)">
			<stop  offset="0" style="stop-color:#FBDA8D"/>
			<stop  offset="1" style="stop-color:#F9E29E"/>
		</linearGradient>
		<path class="st33" d="M183.6-6.5l8.4,33.6l30-35.6C209.2-7.9,196.4-7.3,183.6-6.5z"/>
		
			<linearGradient id="triangle36_17_" gradientUnits="userSpaceOnUse" x1="-152.358" y1="540.4031" x2="-149.9252" y2="537.9702" gradientTransform="matrix(22 0 0 -30 3515 16252)">
			<stop  offset="0" style="stop-color:#EDD59A"/>
			<stop  offset="1" style="stop-color:#EFDBA2"/>
		</linearGradient>
		<polygon id="triangle36_250_" class="st34" points="174.9,108.2 221.9,83.9 192,27.1 		"/>
		
			<linearGradient id="SVGID_17_" gradientUnits="userSpaceOnUse" x1="-152.5685" y1="543.999" x2="-150.1595" y2="541.59" gradientTransform="matrix(31 0 0 -50 4918 27163)">
			<stop  offset="0" style="stop-color:#ECE0A9"/>
			<stop  offset="1" style="stop-color:#F6E3A2"/>
		</linearGradient>
		<path class="st35" d="M222-8.5l-30,35.6l29.9,56.8l25-93.2C238.6-9.2,230.3-8.9,222-8.5z"/>
		
			<linearGradient id="SVGID_18_" gradientUnits="userSpaceOnUse" x1="-156.2182" y1="544.1987" x2="-153.8977" y2="541.8782" gradientTransform="matrix(22 0 0 -55 3435 29900)">
			<stop  offset="0" style="stop-color:#FFA24C"/>
			<stop  offset="1" style="stop-color:#FFA65A"/>
		</linearGradient>
		<path class="st36" d="M6-4.3l4.6,107.1L50.9-2C35.9-2.2,20.9-3,6-4.3z"/>
		
			<linearGradient id="SVGID_19_" gradientUnits="userSpaceOnUse" x1="-156.1013" y1="542.5891" x2="-153.5756" y2="540.0634" gradientTransform="matrix(26 0 0 -39 4058 21164)">
			<stop  offset="0" style="stop-color:#FFA45E"/>
			<stop  offset="1" style="stop-color:#FFB166"/>
		</linearGradient>
		<path class="st37" d="M50.9-2L10.6,102.8l55.5-43.3L51.3-1.9C51.2-1.9,51-1.9,50.9-2z"/>
		
			<linearGradient id="SVGID_20_" gradientUnits="userSpaceOnUse" x1="-155.3404" y1="540.8204" x2="-152.9211" y2="538.4012" gradientTransform="matrix(40 0 0 -29 6247 15694)">
			<stop  offset="0" style="stop-color:#FFB972"/>
			<stop  offset="1" style="stop-color:#FFBE75"/>
		</linearGradient>
		<path class="st38" d="M51.3-1.9l14.8,61.5l70.4,16.2L52-1.9C51.8-1.9,51.5-1.9,51.3-1.9z"/>
		
			<linearGradient id="SVGID_21_" gradientUnits="userSpaceOnUse" x1="-155.0438" y1="544.7498" x2="-152.6848" y2="542.3908" gradientTransform="matrix(53 0 0 -59 8262 32074)">
			<stop  offset="0" style="stop-color:#FCCB83"/>
			<stop  offset="1" style="stop-color:#FFC576"/>
		</linearGradient>
		<path class="st39" d="M52-1.9l84.5,77.7l14-80.4C117.6-2.8,84.8-1.3,52-1.9z"/>
		
			<linearGradient id="SVGID_22_" gradientUnits="userSpaceOnUse" x1="-155.949" y1="541.5134" x2="-153.6561" y2="539.2205" gradientTransform="matrix(47 0 0 -57 7274 31108)">
			<stop  offset="0" style="stop-color:#8C3570"/>
			<stop  offset="1" style="stop-color:#D14D6A"/>
		</linearGradient>
		<path class="st40" d="M-6.1,301.8c-0.1,2.7-0.1,5.5-0.2,8.2c4.7,0,9.3,0,14,0L-6.1,301.8z"/>
		
			<linearGradient id="SVGID_23_" gradientUnits="userSpaceOnUse" x1="-156.5089" y1="540.629" x2="-153.9972" y2="538.1172" gradientTransform="matrix(47 0 0 -46 7274 25067)">
			<stop  offset="0" style="stop-color:#F46B62"/>
			<stop  offset="1" style="stop-color:#E05668"/>
		</linearGradient>
		<path class="st41" d="M-4.1,244.7c-0.1,6.5-0.3,13-0.5,19.5c-0.5,12.5-1.1,25.1-1.5,37.7L7.7,310c2.4,0,4.7,0,7.1,0
			c2.7,0,5.3,0,8,0L-4.1,244.7z"/>
		
			<linearGradient id="triangle36_18_" gradientUnits="userSpaceOnUse" x1="-153.855" y1="541.036" x2="-151.4861" y2="538.6671" gradientTransform="matrix(36 0 0 -40 5657 21753)">
			<stop  offset="0" style="stop-color:#F1BE87"/>
			<stop  offset="1" style="stop-color:#EABE90"/>
		</linearGradient>
		<polygon id="triangle36_235_" class="st42" points="115.2,143.4 149.3,110.9 192,219.1 		"/>
		
			<linearGradient id="triangle36_19_" gradientUnits="userSpaceOnUse" x1="-152.5205" y1="541.185" x2="-150.0753" y2="538.7397" gradientTransform="matrix(24 0 0 -40 3813 21753)">
			<stop  offset="0" style="stop-color:#ECC993"/>
			<stop  offset="1" style="stop-color:#E4C299"/>
		</linearGradient>
		<polygon id="triangle36_234_" class="st43" points="149.3,110.9 200.5,138 192,219.1 		"/>
		
			<linearGradient id="SVGID_24_" gradientUnits="userSpaceOnUse" x1="-152.5173" y1="541.8398" x2="-150.2196" y2="539.5421" gradientTransform="matrix(25 0 0 -60 3969 32733)">
			<stop  offset="0" style="stop-color:#C87C86"/>
			<stop  offset="1" style="stop-color:#BA808B"/>
		</linearGradient>
		<path class="st44" d="M199,308l-7-88.9l-37.4,89.8C169.4,308.6,184.2,308.3,199,308z"/>
		
			<linearGradient id="triangle36_20_" gradientUnits="userSpaceOnUse" x1="-152.6082" y1="538.1876" x2="-150.3394" y2="535.9188" gradientTransform="matrix(29 0 0 -30 4608 16293)">
			<stop  offset="0" style="stop-color:#DFCCA4"/>
			<stop  offset="1" style="stop-color:#DAC3A7"/>
		</linearGradient>
		<polygon id="triangle36_232_" class="st45" points="200.5,138 253.9,159.6 192,219.1 		"/>
		
			<linearGradient id="SVGID_25_" gradientUnits="userSpaceOnUse" x1="-153.3788" y1="541.6824" x2="-151.0308" y2="539.3345" gradientTransform="matrix(43 0 0 -60 6778 32733)">
			<stop  offset="0" style="stop-color:#9D698D"/>
			<stop  offset="1" style="stop-color:#BC8E9C"/>
		</linearGradient>
		<path class="st46" d="M273.7,305.8L192,219.1l7,88.9C223.9,307.4,248.8,306.7,273.7,305.8z"/>
		
			<linearGradient id="SVGID_26_" gradientUnits="userSpaceOnUse" x1="-152.9928" y1="542.4055" x2="-150.6402" y2="540.053" gradientTransform="matrix(43 0 0 -58 6778 31617)">
			<stop  offset="0" style="stop-color:#CEC0B2"/>
			<stop  offset="1" style="stop-color:#C29DA3"/>
		</linearGradient>
		<path class="st47" d="M281.7,305.4l-27.8-145.8L192,219.1l81.7,86.7C276.3,305.7,279,305.6,281.7,305.4z"/>
		
			<linearGradient id="SVGID_27_" gradientUnits="userSpaceOnUse" x1="-155.7731" y1="542.1029" x2="-153.4125" y2="539.7423" gradientTransform="matrix(34 0 0 -61 5306 33257)">
			<stop  offset="0" style="stop-color:#DB6D71"/>
			<stop  offset="1" style="stop-color:#F08A70"/>
		</linearGradient>
		<path class="st48" d="M42.2,309.9l58-47.6L29.8,156.9l-2,153.1C32.6,310,37.4,310,42.2,309.9z"/>
		
			<linearGradient id="SVGID_28_" gradientUnits="userSpaceOnUse" x1="-154.7626" y1="541.1555" x2="-152.4163" y2="538.8093" gradientTransform="matrix(35 0 0 -54 5461 29467)">
			<stop  offset="0" style="stop-color:#C45E74"/>
			<stop  offset="1" style="stop-color:#AF6179"/>
		</linearGradient>
		<path class="st49" d="M100.9,309.5l-0.7-47.2l-58,47.6C61.8,309.9,81.4,309.7,100.9,309.5z"/>
		
			<linearGradient id="triangle36_21_" gradientUnits="userSpaceOnUse" x1="-154.9109" y1="542.2734" x2="-152.5269" y2="539.8894" gradientTransform="matrix(33 0 0 -50 5152 27229)">
			<stop  offset="0" style="stop-color:#F99D6E"/>
			<stop  offset="1" style="stop-color:#F29F78"/>
		</linearGradient>
		<polygon id="triangle36_224_" class="st50" points="29.8,156.9 85.3,127.1 100.2,262.4 		"/>
		
			<linearGradient id="triangle36_22_" gradientUnits="userSpaceOnUse" x1="-153.3643" y1="542.0801" x2="-150.8499" y2="539.5657" gradientTransform="matrix(14 0 0 -50 2233 27229)">
			<stop  offset="0" style="stop-color:#F7B07A"/>
			<stop  offset="1" style="stop-color:#EFA47D"/>
		</linearGradient>
		<polygon id="triangle36_223_" class="st51" points="85.3,127.1 115.2,143.4 100.2,262.4 		"/>
		
			<linearGradient id="SVGID_29_" gradientUnits="userSpaceOnUse" x1="-153.7072" y1="540.8594" x2="-151.419" y2="538.5712" gradientTransform="matrix(24 0 0 -54 3790 29467)">
			<stop  offset="0" style="stop-color:#94527A"/>
			<stop  offset="1" style="stop-color:#D0797E"/>
		</linearGradient>
		<path class="st52" d="M144.4,309l-44.2-46.7l0.7,47.2C115.4,309.4,129.9,309.2,144.4,309z"/>
		
			<linearGradient id="triangle36_23_" gradientUnits="userSpaceOnUse" x1="-154.8898" y1="540.575" x2="-152.5094" y2="538.1946" gradientTransform="matrix(43 0 0 -44 6735 23953)">
			<stop  offset="0" style="stop-color:#F1B382"/>
			<stop  offset="1" style="stop-color:#E8A086"/>
		</linearGradient>
		<polygon id="triangle36_221_" class="st53" points="115.2,143.4 192,219.1 100.2,262.4 		"/>
		
			<linearGradient id="SVGID_30_" gradientUnits="userSpaceOnUse" x1="-154.0675" y1="538.5995" x2="-151.6488" y2="536.1808" gradientTransform="matrix(43 0 0 -36 6735 19605)">
			<stop  offset="0" style="stop-color:#D58482"/>
			<stop  offset="1" style="stop-color:#E39786"/>
		</linearGradient>
		<path class="st54" d="M154.6,308.9l37.4-89.8l-91.8,43.3l44.2,46.7C147.8,309,151.2,308.9,154.6,308.9z"/>
		
			<linearGradient id="SVGID_31_" gradientUnits="userSpaceOnUse" x1="-152.9787" y1="542.0098" x2="-150.6681" y2="539.6992" gradientTransform="matrix(47 0 0 -58 7427 31617)">
			<stop  offset="0" style="stop-color:#BFBFBC"/>
			<stop  offset="1" style="stop-color:#9C9CBF"/>
		</linearGradient>
		<path class="st55" d="M309.8,269.9c0.7-24.5-1-48.8-2.9-73.2l-53-37.2l27.8,145.8c3.8-0.2,7.6-0.3,11.4-0.5l16.1-19.8
			C309.5,280.1,309.7,275,309.8,269.9z"/>
		
			<linearGradient id="SVGID_32_" gradientUnits="userSpaceOnUse" x1="-152.46" y1="537.6673" x2="-150.0513" y2="535.2586" gradientTransform="matrix(47 0 0 -28 7427 15205)">
			<stop  offset="0" style="stop-color:#BFCEC4"/>
			<stop  offset="1" style="stop-color:#A0C5D4"/>
		</linearGradient>
		<path class="st56" d="M303.8,156.3l-49.9,3.3l53,37.2C305.8,183.3,304.7,169.8,303.8,156.3z"/>
		
			<linearGradient id="SVGID_33_" gradientUnits="userSpaceOnUse" x1="-156.014" y1="542.9535" x2="-153.629" y2="540.5685" gradientTransform="matrix(25 0 0 -61 3887 33257)">
			<stop  offset="0" style="stop-color:#F87A63"/>
			<stop  offset="1" style="stop-color:#E87B6B"/>
		</linearGradient>
		<path class="st57" d="M-3.8,182.5c0,20.7,0.1,41.5-0.3,62.2L22.8,310c1.7,0,3.4,0,5,0l2-153.1L-3.8,182.5z"/>
		
			<linearGradient id="triangle36_24_" gradientUnits="userSpaceOnUse" x1="-155.6998" y1="533.4893" x2="-153.3803" y2="531.1699" gradientTransform="matrix(26 0 0 -18 4067 9718)">
			<stop  offset="0" style="stop-color:#FBA068"/>
			<stop  offset="1" style="stop-color:#FCAD6D"/>
		</linearGradient>
		<polygon id="triangle36_754_" class="st58" points="29.8,156.9 40.5,108.2 85.3,127.1 		"/>
		
			<linearGradient id="triangle36_25_" gradientUnits="userSpaceOnUse" x1="-152.5157" y1="525.6367" x2="-150.11" y2="523.231" gradientTransform="matrix(24 0 0 -11 3813 5889)">
			<stop  offset="0" style="stop-color:#EECC92"/>
			<stop  offset="1" style="stop-color:#E8D09A"/>
		</linearGradient>
		<polygon id="triangle36_753_" class="st59" points="149.3,110.9 174.9,108.2 200.5,138 		"/>
		
			<linearGradient id="triangle36_26_" gradientUnits="userSpaceOnUse" x1="-155.3682" y1="538.711" x2="-152.8348" y2="536.1776" gradientTransform="matrix(21 0 0 -25 3297 13529)">
			<stop  offset="0" style="stop-color:#FDAD6A"/>
			<stop  offset="1" style="stop-color:#FDB472"/>
		</linearGradient>
		<polygon id="triangle36_731_" class="st60" points="40.5,108.2 85.3,127.1 66.1,59.5 		"/>
		
			<linearGradient id="triangle36_27_" gradientUnits="userSpaceOnUse" x1="-154.793" y1="538.6194" x2="-152.2107" y2="536.037" gradientTransform="matrix(33 0 0 -25 5169 13529)">
			<stop  offset="0" style="stop-color:#FDB974"/>
			<stop  offset="1" style="stop-color:#F8BF7E"/>
		</linearGradient>
		<polygon id="triangle36_730_" class="st61" points="66.1,59.5 85.3,127.1 136.5,75.8 		"/>
		
			<linearGradient id="triangle36_28_" gradientUnits="userSpaceOnUse" x1="-152.7475" y1="529.905" x2="-150.3397" y2="527.4971" gradientTransform="matrix(18 0 0 -13 2877 6971)">
			<stop  offset="0" style="stop-color:#F2CB8E"/>
			<stop  offset="1" style="stop-color:#F1CD8F"/>
		</linearGradient>
		<polygon id="triangle36_729_" class="st62" points="149.3,110.9 174.9,108.2 136.5,75.8 		"/>
		
			<linearGradient id="triangle36_29_" gradientUnits="userSpaceOnUse" x1="-153.8976" y1="538.2357" x2="-151.5973" y2="535.9354" gradientTransform="matrix(24 0 0 -25 3783 13535)">
			<stop  offset="0" style="stop-color:#F7BA7D"/>
			<stop  offset="1" style="stop-color:#F5C283"/>
		</linearGradient>
		<polygon id="triangle36_728_" class="st63" points="85.3,127.1 136.5,75.8 115.2,143.4 		"/>
		
			<linearGradient id="triangle36_30_" gradientUnits="userSpaceOnUse" x1="-153.0604" y1="538.1306" x2="-150.5949" y2="535.6651" gradientTransform="matrix(16 0 0 -25 2557 13535)">
			<stop  offset="0" style="stop-color:#F5C987"/>
			<stop  offset="1" style="stop-color:#F3C487"/>
		</linearGradient>
		<polygon id="triangle36_727_" class="st64" points="136.5,75.8 149.3,110.9 115.2,143.4 		"/>
		
			<linearGradient id="triangle36_31_" gradientUnits="userSpaceOnUse" x1="-156.1095" y1="535.4926" x2="-153.6282" y2="533.0112" gradientTransform="matrix(14 0 0 -20 2198 10810)">
			<stop  offset="0" style="stop-color:#FC9C64"/>
			<stop  offset="1" style="stop-color:#FFA060"/>
		</linearGradient>
		<polygon id="triangle36_726_" class="st65" points="29.8,156.9 40.5,108.2 10.6,102.8 		"/>
		
			<linearGradient id="triangle36_32_" gradientUnits="userSpaceOnUse" x1="-155.846" y1="535.6238" x2="-153.1986" y2="532.9764" gradientTransform="matrix(26 0 0 -18 4058 9700)">
			<stop  offset="0" style="stop-color:#FFA864"/>
			<stop  offset="1" style="stop-color:#FFA963"/>
		</linearGradient>
		<polygon id="triangle36_725_" class="st66" points="40.5,108.2 66.1,59.5 10.6,102.8 		"/>
		
			<linearGradient id="SVGID_34_" gradientUnits="userSpaceOnUse" x1="-157.0014" y1="541.294" x2="-154.5821" y2="538.8747" gradientTransform="matrix(34 0 0 -33 5264 17888)">
			<stop  offset="0" style="stop-color:#FF8848"/>
			<stop  offset="1" style="stop-color:#FF8D45"/>
		</linearGradient>
		<path class="st67" d="M-2.5,102.8h13.1L-2.3,86.9C-2.3,92.2-2.4,97.5-2.5,102.8z"/>
		
			<linearGradient id="SVGID_35_" gradientUnits="userSpaceOnUse" x1="-156.4294" y1="544.5452" x2="-154.0815" y2="542.1973" gradientTransform="matrix(34 0 0 -55 5264 29900)">
			<stop  offset="0" style="stop-color:#FF9945"/>
			<stop  offset="1" style="stop-color:#FF9044"/>
		</linearGradient>
		<path class="st68" d="M-11.7-6.1c0.4,2.7,0.7,5.4,1.1,8.1C-6.9,28.5-2.4,55.2-2.3,82c0,1.6,0,3.2,0,4.8l12.9,15.9L6-4.3
			C0.1-4.8-5.8-5.4-11.7-6.1z"/>
		
			<linearGradient id="SVGID_36_" gradientUnits="userSpaceOnUse" x1="-156.1927" y1="526.502" x2="-153.6307" y2="523.9401" gradientTransform="matrix(24 0 0 -11 3724 5887)">
			<stop  offset="0" style="stop-color:#FF894D"/>
			<stop  offset="1" style="stop-color:#FF8F55"/>
		</linearGradient>
		<path class="st69" d="M-2.7,114.4l13.3-11.6H-2.5C-2.5,106.7-2.6,110.5-2.7,114.4z"/>
		
			<linearGradient id="SVGID_37_" gradientUnits="userSpaceOnUse" x1="-156.4644" y1="536.4756" x2="-154.1748" y2="534.186" gradientTransform="matrix(25 0 0 -24 3887 13009)">
			<stop  offset="0" style="stop-color:#FC805E"/>
			<stop  offset="1" style="stop-color:#FF8D5D"/>
		</linearGradient>
		<path class="st70" d="M29.8,156.9l-33.1-15.1c-0.2,10.5-0.5,21.1-0.5,31.6c0,3,0,6,0,9.1L29.8,156.9z"/>
		
			<linearGradient id="SVGID_38_" gradientUnits="userSpaceOnUse" x1="-156.3406" y1="535.3922" x2="-153.9456" y2="532.9971" gradientTransform="matrix(25 0 0 -20 3887 10810)">
			<stop  offset="0" style="stop-color:#FF975A"/>
			<stop  offset="1" style="stop-color:#FF915C"/>
		</linearGradient>
		<path class="st71" d="M-3.3,141.8l33.1,15.1l-19.2-54.1l-13.3,11.6C-2.8,123.5-3.1,132.6-3.3,141.8z"/>
		
			<linearGradient id="triangle36_33_" gradientUnits="userSpaceOnUse" x1="-151.6093" y1="536.0409" x2="-149.1888" y2="533.6204" gradientTransform="matrix(22 0 0 -20 3515 10803)">
			<stop  offset="0" style="stop-color:#EAD39C"/>
			<stop  offset="1" style="stop-color:#E5D6A3"/>
		</linearGradient>
		<polygon id="triangle36_697_" class="st72" points="174.9,108.2 200.5,138 221.9,83.9 		"/>
		
			<linearGradient id="triangle36_34_" gradientUnits="userSpaceOnUse" x1="-147.0746" y1="536.0991" x2="-144.37" y2="533.3945" gradientTransform="matrix(10 0 0 -20 1667 10803)">
			<stop  offset="0" style="stop-color:#E2D4A3"/>
			<stop  offset="1" style="stop-color:#E1D9A8"/>
		</linearGradient>
		<polygon id="triangle36_696_" class="st73" points="200.5,138 221.9,127.1 221.9,83.9 		"/>
		
			<linearGradient id="triangle36_35_" gradientUnits="userSpaceOnUse" x1="-146.8559" y1="532.7148" x2="-144.5317" y2="530.3907" gradientTransform="matrix(11 0 0 -16 1832 8615)">
			<stop  offset="0" style="stop-color:#DFD8AB"/>
			<stop  offset="1" style="stop-color:#E1DCAE"/>
		</linearGradient>
		<polygon id="triangle36_695_" class="st74" points="221.9,127.1 245.3,105.5 221.9,83.9 		"/>
		
			<linearGradient id="triangle36_36_" gradientUnits="userSpaceOnUse" x1="-151.6423" y1="526.281" x2="-149.2514" y2="523.89" gradientTransform="matrix(25 0 0 -12 3992 6443)">
			<stop  offset="0" style="stop-color:#DFD1A6"/>
			<stop  offset="1" style="stop-color:#D8D4B0"/>
		</linearGradient>
		<polygon id="triangle36_694_" class="st75" points="200.5,138 221.9,127.1 253.9,159.6 		"/>
		
			<linearGradient id="triangle36_37_" gradientUnits="userSpaceOnUse" x1="-148.483" y1="535.3241" x2="-146.135" y2="532.9761" gradientTransform="matrix(15 0 0 -20 2452 10811)">
			<stop  offset="0" style="stop-color:#DBD7AF"/>
			<stop  offset="1" style="stop-color:#D7D8B5"/>
		</linearGradient>
		<polygon id="triangle36_693_" class="st76" points="221.9,127.1 245.3,105.5 253.9,159.6 		"/>
		
			<linearGradient id="triangle36_38_" gradientUnits="userSpaceOnUse" x1="-149.4481" y1="535.1767" x2="-146.8427" y2="532.5713" gradientTransform="matrix(19 0 0 -20 3083 10811)">
			<stop  offset="0" style="stop-color:#D7DDB8"/>
			<stop  offset="1" style="stop-color:#CEDBBE"/>
		</linearGradient>
		<polygon id="triangle36_692_" class="st77" points="245.3,105.5 285.9,110.9 253.9,159.6 		"/>
		
			<linearGradient id="SVGID_39_" gradientUnits="userSpaceOnUse" x1="-151.144" y1="533.4929" x2="-148.7367" y2="531.0856" gradientTransform="matrix(26 0 0 -18 4172 9719)">
			<stop  offset="0" style="stop-color:#CCD8BF"/>
			<stop  offset="1" style="stop-color:#C6DFC8"/>
		</linearGradient>
		<path class="st78" d="M302.7,132.4c-0.1-2.7-0.2-5.4-0.2-8.1l-16.5-13.3l-32,48.7l48.8-26.2C302.7,133.1,302.7,132.7,302.7,132.4z
			"/>
		
			<linearGradient id="SVGID_40_" gradientUnits="userSpaceOnUse" x1="-152.6328" y1="523.991" x2="-150.0871" y2="521.4454" gradientTransform="matrix(38 0 0 -11 6032 5897)">
			<stop  offset="0" style="stop-color:#C5D7C2"/>
			<stop  offset="1" style="stop-color:#B6DBD0"/>
		</linearGradient>
		<path class="st79" d="M302.7,133.4l-48.8,26.2l49.9-3.3C303.3,148.7,302.9,141.1,302.7,133.4z"/>
		
			<linearGradient id="SVGID_41_" gradientUnits="userSpaceOnUse" x1="-150.5282" y1="534.1568" x2="-148.1209" y2="531.7495" gradientTransform="matrix(26 0 0 -18 4187 9708)">
			<stop  offset="0" style="stop-color:#C7E2C9"/>
			<stop  offset="1" style="stop-color:#C1E3CE"/>
		</linearGradient>
		<path class="st80" d="M302.1,102.2l-16.2,8.7l16.5,13.3C302.3,116.9,302.1,109.6,302.1,102.2z"/>
		
			<linearGradient id="SVGID_42_" gradientUnits="userSpaceOnUse" x1="-153.0377" y1="540.8361" x2="-150.6076" y2="538.4059" gradientTransform="matrix(46 0 0 -31 7257 16797)">
			<stop  offset="0" style="stop-color:#E4E1B2"/>
			<stop  offset="1" style="stop-color:#DFE5BD"/>
		</linearGradient>
		<path class="st81" d="M302.3,32.9l-80.4,51l23.5,21.6l56.9-63.9C302.3,38.7,302.3,35.8,302.3,32.9z"/>
		
			<linearGradient id="SVGID_43_" gradientUnits="userSpaceOnUse" x1="-153.4817" y1="543.8403" x2="-151.0844" y2="541.4431" gradientTransform="matrix(46 0 0 -50 7257 27163)">
			<stop  offset="0" style="stop-color:#EAE3B0"/>
			<stop  offset="1" style="stop-color:#ECEBB6"/>
		</linearGradient>
		<path class="st82" d="M302.6,1l-8.9-10.5c-7.7-0.2-15.3-0.3-23-0.3c-7.9,0-15.8,0.2-23.8,0.4l-25,93.2l80.4-51
			C302.4,22.3,302.5,11.7,302.6,1z"/>
		
			<linearGradient id="SVGID_44_" gradientUnits="userSpaceOnUse" x1="-152.5921" y1="541.3935" x2="-149.7268" y2="538.5283" gradientTransform="matrix(35 0 0 -33 5563 17891)">
			<stop  offset="0" style="stop-color:#D9E1BB"/>
			<stop  offset="1" style="stop-color:#D7E6C4"/>
		</linearGradient>
		<path class="st83" d="M302.2,41.7l-56.9,63.9l40.5,5.4L302,68.7C302.1,59.7,302.1,50.7,302.2,41.7z"/>
		
			<linearGradient id="SVGID_45_" gradientUnits="userSpaceOnUse" x1="-151.3419" y1="544.8134" x2="-149.0154" y2="542.4868" gradientTransform="matrix(29 0 0 -53 4639 28778)">
			<stop  offset="0" style="stop-color:#F3EBA8"/>
			<stop  offset="1" style="stop-color:#E2E5A7"/>
		</linearGradient>
		<path class="st84" d="M302.6-9.2c-3-0.1-6-0.2-8.9-0.3L302.6,1C302.6-2.4,302.6-5.8,302.6-9.2z"/>
		
			<linearGradient id="SVGID_46_" gradientUnits="userSpaceOnUse" x1="-151.0317" y1="540.7286" x2="-148.5358" y2="538.2327" gradientTransform="matrix(26 0 0 -33 4187 17891)">
			<stop  offset="0" style="stop-color:#CDE4C8"/>
			<stop  offset="1" style="stop-color:#D1E9CB"/>
		</linearGradient>
		<path class="st85" d="M302,68.7l-16.1,42.2l16.2-8.7C302,91.1,302,79.9,302,68.7z"/>
		
			<linearGradient id="SVGID_47_" gradientUnits="userSpaceOnUse" x1="-153.7295" y1="544.5797" x2="-151.2637" y2="542.1139" gradientTransform="matrix(26 0 0 -59 4117 32074)">
			<stop  offset="0" style="stop-color:#F9D18C"/>
			<stop  offset="1" style="stop-color:#FBD88F"/>
		</linearGradient>
		<path class="st86" d="M150.5-4.6l-14,80.4L192,27.1l-8.4-33.6C172.6-5.9,161.5-5.3,150.5-4.6z"/>
		
			<linearGradient id="triangle36_39_" gradientUnits="userSpaceOnUse" x1="-152.8593" y1="540.8502" x2="-150.5164" y2="538.5072" gradientTransform="matrix(26 0 0 -30 4117 16252)">
			<stop  offset="0" style="stop-color:#F4CF8D"/>
			<stop  offset="1" style="stop-color:#F1D597"/>
		</linearGradient>
		<polygon id="triangle36_543_" class="st87" points="136.5,75.8 174.9,108.2 192,27.1 		"/>
		
			<linearGradient id="SVGID_48_" gradientUnits="userSpaceOnUse" x1="-154.1893" y1="543.5409" x2="-151.6149" y2="540.9664" gradientTransform="matrix(44 0 0 -41 6920 22228)">
			<stop  offset="0" style="stop-color:#FBDA8D"/>
			<stop  offset="1" style="stop-color:#F9E29E"/>
		</linearGradient>
		<path class="st88" d="M183.6-6.5l8.4,33.6l30-35.6C209.2-7.9,196.4-7.3,183.6-6.5z"/>
		
			<linearGradient id="triangle36_40_" gradientUnits="userSpaceOnUse" x1="-152.358" y1="540.4031" x2="-149.9252" y2="537.9702" gradientTransform="matrix(22 0 0 -30 3515 16252)">
			<stop  offset="0" style="stop-color:#EDD59A"/>
			<stop  offset="1" style="stop-color:#EFDBA2"/>
		</linearGradient>
		<polygon id="triangle36_541_" class="st89" points="174.9,108.2 221.9,83.9 192,27.1 		"/>
		
			<linearGradient id="SVGID_49_" gradientUnits="userSpaceOnUse" x1="-152.5685" y1="543.999" x2="-150.1595" y2="541.59" gradientTransform="matrix(31 0 0 -50 4918 27163)">
			<stop  offset="0" style="stop-color:#ECE0A9"/>
			<stop  offset="1" style="stop-color:#F6E3A2"/>
		</linearGradient>
		<path class="st90" d="M222-8.5l-30,35.6l29.9,56.8l25-93.2C238.6-9.2,230.3-8.9,222-8.5z"/>
		
			<linearGradient id="SVGID_50_" gradientUnits="userSpaceOnUse" x1="-156.2182" y1="544.1987" x2="-153.8977" y2="541.8782" gradientTransform="matrix(22 0 0 -55 3435 29900)">
			<stop  offset="0" style="stop-color:#FFA24C"/>
			<stop  offset="1" style="stop-color:#FFA65A"/>
		</linearGradient>
		<path class="st91" d="M6-4.3l4.6,107.1L50.9-2C35.9-2.2,20.9-3,6-4.3z"/>
		
			<linearGradient id="SVGID_51_" gradientUnits="userSpaceOnUse" x1="-156.1013" y1="542.5891" x2="-153.5756" y2="540.0634" gradientTransform="matrix(26 0 0 -39 4058 21164)">
			<stop  offset="0" style="stop-color:#FFA45E"/>
			<stop  offset="1" style="stop-color:#FFB166"/>
		</linearGradient>
		<path class="st92" d="M50.9-2L10.6,102.8l55.5-43.3L51.3-1.9C51.2-1.9,51-1.9,50.9-2z"/>
		
			<linearGradient id="SVGID_52_" gradientUnits="userSpaceOnUse" x1="-155.3404" y1="540.8204" x2="-152.9211" y2="538.4012" gradientTransform="matrix(40 0 0 -29 6247 15694)">
			<stop  offset="0" style="stop-color:#FFB972"/>
			<stop  offset="1" style="stop-color:#FFBE75"/>
		</linearGradient>
		<path class="st93" d="M51.3-1.9l14.8,61.5l70.4,16.2L52-1.9C51.8-1.9,51.5-1.9,51.3-1.9z"/>
		
			<linearGradient id="SVGID_53_" gradientUnits="userSpaceOnUse" x1="-155.0438" y1="544.7498" x2="-152.6848" y2="542.3908" gradientTransform="matrix(53 0 0 -59 8262 32074)">
			<stop  offset="0" style="stop-color:#FCCB83"/>
			<stop  offset="1" style="stop-color:#FFC576"/>
		</linearGradient>
		<path class="st94" d="M52-1.9l84.5,77.7l14-80.4C117.6-2.8,84.8-1.3,52-1.9z"/>
		
			<linearGradient id="SVGID_54_" gradientUnits="userSpaceOnUse" x1="-155.949" y1="541.5134" x2="-153.6561" y2="539.2205" gradientTransform="matrix(47 0 0 -57 7274 31108)">
			<stop  offset="0" style="stop-color:#8C3570"/>
			<stop  offset="1" style="stop-color:#D14D6A"/>
		</linearGradient>
		<path class="st95" d="M-6.1,301.8c-0.1,2.7-0.1,5.5-0.2,8.2c4.7,0,9.3,0,14,0L-6.1,301.8z"/>
		
			<linearGradient id="SVGID_55_" gradientUnits="userSpaceOnUse" x1="-156.5089" y1="540.629" x2="-153.9972" y2="538.1172" gradientTransform="matrix(47 0 0 -46 7274 25067)">
			<stop  offset="0" style="stop-color:#F46B62"/>
			<stop  offset="1" style="stop-color:#E05668"/>
		</linearGradient>
		<path class="st96" d="M-4.1,244.7c-0.1,6.5-0.3,13-0.5,19.5c-0.5,12.5-1.1,25.1-1.5,37.7L7.7,310c2.4,0,4.7,0,7.1,0
			c2.7,0,5.3,0,8,0L-4.1,244.7z"/>
		
			<linearGradient id="triangle36_41_" gradientUnits="userSpaceOnUse" x1="-153.855" y1="541.036" x2="-151.4861" y2="538.6671" gradientTransform="matrix(36 0 0 -40 5657 21753)">
			<stop  offset="0" style="stop-color:#F1BE87"/>
			<stop  offset="1" style="stop-color:#EABE90"/>
		</linearGradient>
		<polygon id="triangle36_526_" class="st97" points="115.2,143.4 149.3,110.9 192,219.1 		"/>
		
			<linearGradient id="triangle36_42_" gradientUnits="userSpaceOnUse" x1="-152.5205" y1="541.185" x2="-150.0753" y2="538.7397" gradientTransform="matrix(24 0 0 -40 3813 21753)">
			<stop  offset="0" style="stop-color:#ECC993"/>
			<stop  offset="1" style="stop-color:#E4C299"/>
		</linearGradient>
		<polygon id="triangle36_525_" class="st98" points="149.3,110.9 200.5,138 192,219.1 		"/>
		
			<linearGradient id="SVGID_56_" gradientUnits="userSpaceOnUse" x1="-152.5173" y1="541.8398" x2="-150.2196" y2="539.5421" gradientTransform="matrix(25 0 0 -60 3969 32733)">
			<stop  offset="0" style="stop-color:#C87C86"/>
			<stop  offset="1" style="stop-color:#BA808B"/>
		</linearGradient>
		<path class="st99" d="M199,308l-7-88.9l-37.4,89.8C169.4,308.6,184.2,308.3,199,308z"/>
		
			<linearGradient id="triangle36_43_" gradientUnits="userSpaceOnUse" x1="-152.6082" y1="538.1876" x2="-150.3394" y2="535.9188" gradientTransform="matrix(29 0 0 -30 4608 16293)">
			<stop  offset="0" style="stop-color:#DFCCA4"/>
			<stop  offset="1" style="stop-color:#DAC3A7"/>
		</linearGradient>
		<polygon id="triangle36_523_" class="st100" points="200.5,138 253.9,159.6 192,219.1 		"/>
		
			<linearGradient id="SVGID_57_" gradientUnits="userSpaceOnUse" x1="-153.3788" y1="541.6824" x2="-151.0308" y2="539.3345" gradientTransform="matrix(43 0 0 -60 6778 32733)">
			<stop  offset="0" style="stop-color:#9D698D"/>
			<stop  offset="1" style="stop-color:#BC8E9C"/>
		</linearGradient>
		<path class="st101" d="M273.7,305.8L192,219.1l7,88.9C223.9,307.4,248.8,306.7,273.7,305.8z"/>
		
			<linearGradient id="SVGID_58_" gradientUnits="userSpaceOnUse" x1="-152.9928" y1="542.4055" x2="-150.6402" y2="540.053" gradientTransform="matrix(43 0 0 -58 6778 31617)">
			<stop  offset="0" style="stop-color:#CEC0B2"/>
			<stop  offset="1" style="stop-color:#C29DA3"/>
		</linearGradient>
		<path class="st102" d="M281.7,305.4l-27.8-145.8L192,219.1l81.7,86.7C276.3,305.7,279,305.6,281.7,305.4z"/>
		
			<linearGradient id="SVGID_59_" gradientUnits="userSpaceOnUse" x1="-155.7731" y1="542.1029" x2="-153.4125" y2="539.7423" gradientTransform="matrix(34 0 0 -61 5306 33257)">
			<stop  offset="0" style="stop-color:#DB6D71"/>
			<stop  offset="1" style="stop-color:#F08A70"/>
		</linearGradient>
		<path class="st103" d="M42.2,309.9l58-47.6L29.8,156.9l-2,153.1C32.6,310,37.4,310,42.2,309.9z"/>
		
			<linearGradient id="SVGID_60_" gradientUnits="userSpaceOnUse" x1="-154.7626" y1="541.1555" x2="-152.4163" y2="538.8093" gradientTransform="matrix(35 0 0 -54 5461 29467)">
			<stop  offset="0" style="stop-color:#C45E74"/>
			<stop  offset="1" style="stop-color:#AF6179"/>
		</linearGradient>
		<path class="st104" d="M100.9,309.5l-0.7-47.2l-58,47.6C61.8,309.9,81.4,309.7,100.9,309.5z"/>
		
			<linearGradient id="triangle36_44_" gradientUnits="userSpaceOnUse" x1="-154.9109" y1="542.2734" x2="-152.5269" y2="539.8894" gradientTransform="matrix(33 0 0 -50 5152 27229)">
			<stop  offset="0" style="stop-color:#F99D6E"/>
			<stop  offset="1" style="stop-color:#F29F78"/>
		</linearGradient>
		<polygon id="triangle36_515_" class="st105" points="29.8,156.9 85.3,127.1 100.2,262.4 		"/>
		
			<linearGradient id="triangle36_45_" gradientUnits="userSpaceOnUse" x1="-153.3643" y1="542.0801" x2="-150.8499" y2="539.5657" gradientTransform="matrix(14 0 0 -50 2233 27229)">
			<stop  offset="0" style="stop-color:#F7B07A"/>
			<stop  offset="1" style="stop-color:#EFA47D"/>
		</linearGradient>
		<polygon id="triangle36_514_" class="st106" points="85.3,127.1 115.2,143.4 100.2,262.4 		"/>
		
			<linearGradient id="SVGID_61_" gradientUnits="userSpaceOnUse" x1="-153.7072" y1="540.8594" x2="-151.419" y2="538.5712" gradientTransform="matrix(24 0 0 -54 3790 29467)">
			<stop  offset="0" style="stop-color:#94527A"/>
			<stop  offset="1" style="stop-color:#D0797E"/>
		</linearGradient>
		<path class="st107" d="M144.4,309l-44.2-46.7l0.7,47.2C115.4,309.4,129.9,309.2,144.4,309z"/>
		
			<linearGradient id="triangle36_46_" gradientUnits="userSpaceOnUse" x1="-154.8898" y1="540.575" x2="-152.5094" y2="538.1946" gradientTransform="matrix(43 0 0 -44 6735 23953)">
			<stop  offset="0" style="stop-color:#F1B382"/>
			<stop  offset="1" style="stop-color:#E8A086"/>
		</linearGradient>
		<polygon id="triangle36_512_" class="st108" points="115.2,143.4 192,219.1 100.2,262.4 		"/>
		
			<linearGradient id="SVGID_62_" gradientUnits="userSpaceOnUse" x1="-154.0675" y1="538.5995" x2="-151.6488" y2="536.1808" gradientTransform="matrix(43 0 0 -36 6735 19605)">
			<stop  offset="0" style="stop-color:#D58482"/>
			<stop  offset="1" style="stop-color:#E39786"/>
		</linearGradient>
		<path class="st109" d="M154.6,308.9l37.4-89.8l-91.8,43.3l44.2,46.7C147.8,309,151.2,308.9,154.6,308.9z"/>
		
			<linearGradient id="SVGID_63_" gradientUnits="userSpaceOnUse" x1="-152.9787" y1="542.0098" x2="-150.6681" y2="539.6992" gradientTransform="matrix(47 0 0 -58 7427 31617)">
			<stop  offset="0" style="stop-color:#BFBFBC"/>
			<stop  offset="1" style="stop-color:#9C9CBF"/>
		</linearGradient>
		<path class="st110" d="M309.8,269.9c0.7-24.5-1-48.8-2.9-73.2l-53-37.2l27.8,145.8c3.8-0.2,7.6-0.3,11.4-0.5l16.1-19.8
			C309.5,280.1,309.7,275,309.8,269.9z"/>
		
			<linearGradient id="SVGID_64_" gradientUnits="userSpaceOnUse" x1="-152.46" y1="537.6673" x2="-150.0513" y2="535.2586" gradientTransform="matrix(47 0 0 -28 7427 15205)">
			<stop  offset="0" style="stop-color:#BFCEC4"/>
			<stop  offset="1" style="stop-color:#A0C5D4"/>
		</linearGradient>
		<path class="st111" d="M303.8,156.3l-49.9,3.3l53,37.2C305.8,183.3,304.7,169.8,303.8,156.3z"/>
	</g>
</g>
<g id="Layer_2">
	<g>
		<g>
			<rect x="-8.5" y="-5.9" class="st112" width="319.5" height="315.9"/>
		</g>
	</g>
	<circle class="st113" cx="212" cy="181" r="18"/>
	<ellipse class="st113" cx="211.5" cy="83" rx="15.5" ry="74"/>
	<ellipse transform="matrix(0.844 -0.5363 0.5363 0.844 -33.0622 98.3251)" class="st113" cx="152.5" cy="106" rx="15.5" ry="74"/>
	
		<ellipse transform="matrix(0.3148 -0.9492 0.9492 0.3148 -74.8882 222.2605)" class="st113" cx="116.5" cy="163" rx="15.5" ry="74"/>
	
		<ellipse transform="matrix(0.9272 -0.3745 0.3745 0.9272 -76.5567 64.0417)" class="st113" cx="126.5" cy="229" rx="74" ry="15.5"/>
	
		<ellipse transform="matrix(0.3986 -0.9171 0.9171 0.3986 -137.3252 338.5873)" class="st113" cx="189.5" cy="274" rx="74" ry="15.5"/>
	<ellipse transform="matrix(0.866 -0.5 0.5 0.866 -22.5804 161.7289)" class="st113" cx="290.5" cy="123" rx="74" ry="15.5"/>
	
		<ellipse transform="matrix(0.6296 -0.7769 0.7769 0.6296 -73.4596 313.9112)" class="st113" cx="292.5" cy="234" rx="15.5" ry="74"/>
</g>
</svg>
