<?xml version="1.0" encoding="utf-8"?>
<!-- Generator: Adobe Illustrator 22.1.0, SVG Export Plug-In . SVG Version: 6.00 Build 0)  -->
<svg version="1.1" id="Layer_1" xmlns="http://www.w3.org/2000/svg" xmlns:xlink="http://www.w3.org/1999/xlink" x="0px" y="0px"
	 viewBox="0 0 24 24" style="enable-background:new 0 0 24 24;" xml:space="preserve">
<path d="M15,13h2v-2h-2 M15,21h2v-2h-2 M11,9h2V7h-2 M11,13h2v-2h-2 M3,9h2V7H3 M3,13h2v-2H3 M3,17h2v-2H3 M3,21h2v-2H3 M11,21h2v-2
	h-2 M11,17h2v-2h-2 M7,21h2v-2H7 M7,13h2v-2H7 M5,3v2H3V3H5z M19,19h2v2h-2V19z M7,5V3h4c5.5,0,10,4.5,10,10v4h-2v-4
	c0-4.4-3.6-8-8-8H7z"/>
</svg>
